<?xml version="1.0" standalone="no"?>
<!DOCTYPE svg PUBLIC "-//W3C//DTD SVG 20010904//EN"
 "http://www.w3.org/TR/2001/REC-SVG-20010904/DTD/svg10.dtd">
<svg version="1.0" xmlns="http://www.w3.org/2000/svg"
 width="170.000000pt" height="170.000000pt" viewBox="0 0 170.000000 170.000000"
 preserveAspectRatio="xMidYMid meet">

<g transform="translate(0.000000,170.000000) scale(0.100000,-0.100000)"
fill="#000000" stroke="none">
<path d="M0 850 l0 -850 850 0 850 0 0 850 0 850 -850 0 -850 0 0 -850z m834
352 l129 -3 139 138 140 138 -4 -295 c-3 -273 -5 -298 -24 -340 -11 -25 -33
-59 -48 -77 -33 -39 -119 -83 -163 -83 l-33 0 0 130 0 130 -138 0 -138 0 -127
-128 -127 -129 0 294 c0 316 2 329 56 400 32 42 100 82 155 91 l44 8 5 -136 5
-135 129 -3z m-541 -754 c10 -21 22 -38 25 -38 4 0 15 18 24 40 13 32 22 40
42 40 26 0 26 -1 26 -81 0 -71 -2 -80 -17 -77 -13 2 -19 16 -23 48 l-5 45 -14
-32 c-24 -59 -37 -60 -65 -6 l-25 48 -1 -52 c0 -40 -4 -53 -15 -53 -12 0 -15
16 -15 81 0 78 1 80 23 77 14 -2 29 -16 40 -40z m354 20 c33 -31 32 -90 -3
-117 -38 -30 -80 -27 -115 8 -16 16 -29 37 -29 46 0 22 27 72 42 78 32 13 83
6 105 -15z m157 -30 l23 -53 23 53 c12 28 29 52 36 52 20 0 18 -16 -13 -93
-35 -86 -55 -87 -88 -4 -37 90 -38 97 -20 97 10 0 25 -20 39 -52z m221 -28 c0
-63 -3 -75 -17 -78 -16 -3 -18 6 -18 78 0 72 2 81 18 78 14 -3 17 -15 17 -78z
m215 65 c0 -11 -11 -15 -40 -15 -33 0 -40 -3 -40 -20 0 -17 7 -20 40 -20 22 0
40 -4 40 -10 0 -5 -18 -10 -40 -10 -33 0 -40 -3 -40 -20 0 -17 7 -20 45 -20
33 0 45 -4 45 -15 0 -12 -13 -15 -60 -15 l-60 0 0 80 0 80 55 0 c42 0 55 -3
55 -15z m199 6 c22 -14 4 -32 -23 -21 -25 9 -52 -2 -42 -18 3 -6 22 -16 41
-22 41 -14 54 -44 29 -71 -19 -21 -64 -25 -95 -8 -31 16 -12 30 32 23 32 -5
39 -4 39 10 0 9 -12 18 -27 22 -16 4 -34 11 -40 17 -16 12 -17 49 -1 65 14 14
67 16 87 3z"/>
<path d="M562 454 c-24 -17 -30 -62 -10 -82 19 -19 66 -15 78 7 15 29 12 49
-10 71 -24 24 -29 24 -58 4z"/>
</g>
</svg>
